<?xml version="1.0" standalone="yes"?>
<svg xmlns="http://www.w3.org/2000/svg" width="502" height="235">
<path style="fill:#fdfcfc; stroke:none;" d="M0 0L0 235L502 235L502 0L0 0z"/>
<path style="fill:#bd054b; stroke:none;" d="M83 98C81.7519 95.6951 80.476 92.634 77.7901 91.6929C73.198 90.0838 69.1122 92.932 65.6073 87.8912C62.4561 83.3592 66.1739 78.3275 70.0154 75.7029C77.3007 70.7255 89.5982 73 98 73C95.845 80.6506 93.8805 88.3539 91.7099 96C90.8314 99.0946 90.4331 103.162 88.2724 105.682C84.6441 109.913 76.8436 106.842 73.7515 112.225C71.7981 115.625 75.9228 118.845 78 121C80.6362 119.488 83.1605 118.086 86 117C81.1512 131.24 68.239 149.054 52 138L44 144L44 146C59.1201 155.009 77.2402 154.294 88.2114 139C91.034 135.065 93.2183 130.439 95.1273 126C96.152 123.618 96.7565 120.446 98.7022 118.603C100.827 116.591 104.311 116.999 107 116.56C110.667 115.962 113.778 114.807 117 113C113.23 104.949 108.477 106.659 101 107C103.171 99.3512 105.117 91.6457 107.29 84C108.122 81.0739 108.516 76.8282 111.303 75.0278C113.487 73.617 116.534 74.07 119 73.8302C125.332 73.2146 131.659 72.5004 138 72C138.3 75.44 139.232 78.6431 140 82C144.245 81.2147 147.755 81.2147 152 82C144.624 95.8509 143.248 111.44 138.135 126C135.78 132.705 132.264 139.955 125 142C125.301 127.514 132.084 113.129 135 99C132.069 99 127.192 98.1107 124.728 100.028C122.039 102.119 121.588 107.907 120.71 111C118.03 120.442 111.797 134.231 114.993 143.996C119.498 157.759 133.892 150.782 141 144C145.249 156.385 161.82 151 172 151C173.576 139.295 177.217 125.475 184.529 116C186.235 113.79 192.796 105.28 195.968 109.427C198.247 112.406 195.743 117.911 194.859 121C192.061 130.772 187.831 140.824 187 151C189.833 151 194.041 151.708 196.487 149.972C199.208 148.041 199.726 142.989 200.579 140C202.737 132.437 204.693 124.624 209.105 118C211.256 114.771 215.58 108.638 219.927 108.461C225.662 108.228 221.785 118.383 220.975 121C218.069 130.385 211.387 151.283 227.995 151.942C230.164 152.028 231.952 151.605 234 151C232.757 156.159 231.699 161.716 231.171 167C230.317 175.537 231.545 194.476 244.996 188.991C246.773 188.266 248.332 187.154 249.671 185.786C259.679 175.565 261.847 154.943 257 142C260.154 141.749 264.752 139.993 267.74 141.317C270.271 142.439 271.542 145.616 273.478 147.471C277.234 151.067 281.925 152.221 287 151.956C295.791 151.498 298.972 144.559 306.015 141.024C309.595 139.227 315.036 139.313 319 139C319.957 148.288 326.797 153.324 336 151.671C339.091 151.115 341.927 148.679 345 148.508C347.907 148.346 350.279 150.852 353 151.567C360.092 153.432 366.028 149.507 370 144C378.088 151.897 387.872 155.048 397.996 148.15C401.185 145.977 403.469 142.035 407.09 140.603C412.919 138.299 420.728 140.134 427 138.522C445.263 133.826 459.875 117.708 455.319 98C453.35 89.4804 445.832 82.2552 437 81.3403C425.75 80.1749 414.903 89.4704 416.11 101C416.469 104.439 418.279 107.099 420 110L422 110C423.296 108.07 424.997 106.143 425.917 103.995C427.62 100.018 426.865 96.4536 431.045 93.7461C439.682 88.152 446.256 100.834 444.942 108C442.129 123.344 424.687 129.717 411 130C411.422 124.654 412.425 119.399 411.895 114C410.492 99.7097 393.38 92.3869 382.043 101.419C372.287 109.192 371.008 121.684 365.726 132C363.293 136.752 360.219 140.534 355 142C355.639 127.341 363.048 113.487 365 99L354 99C351.703 110.099 349.184 124.446 342.892 134C340.744 137.262 335.796 143.892 331.318 140.377C327.742 137.571 328.773 129.973 329.171 126C330.545 112.259 336.764 98.5924 342 86C346.189 88.1022 350.482 88.7454 355 89.8395C357.848 90.5292 360.923 92.131 363.91 91.5162C373.223 89.6 381.448 76.9938 376.821 68.0154C369.023 52.8844 343.843 60.5046 338 73C330.73 70.6955 324.465 71.0566 317 72L319 81C321.773 81.0003 327.252 80.0631 329.184 82.6034C331.364 85.4702 326.999 93.0038 326 96C322.485 106.538 321.834 125.966 310 130C311.241 123.318 312.408 114.42 309.633 108C304.514 96.1573 290.493 94.9475 281.004 102.394C276.524 105.909 273.122 110.713 271.069 116C269.23 120.735 268.749 126.12 264.867 129.772C260.553 133.829 255.313 132.986 250 132C253.053 123.906 254.708 115.25 257.344 107C259.611 99.906 262.962 93.1302 265 86C269.076 88.1372 273.395 89.3902 278 89.8287C282.009 90.2105 286.252 89.6722 289.999 88.1605C299.242 84.4318 303.255 71.9481 295.61 64.5332C291.424 60.4736 284.581 59.4968 279 60.1852C275.403 60.6288 272.009 62.1212 269.001 64.108C265.444 66.457 262.946 69.2586 261 73C253.73 70.6955 247.465 71.0566 240 72C242.184 81.4 246.626 80.4454 255 82C249.042 97.3616 245.725 113.836 239.546 129C238.32 132.009 233.99 142.369 229.404 140.654C225.848 139.325 229.206 131.305 229.86 129C232.812 118.582 239.872 98.0309 222 98.0309C219.945 98.0309 217.931 98.2607 216 98.9946C212.575 100.296 209.752 102.661 207 105C203.406 95.3589 191.895 97.1531 185 102C184.018 97.4191 177.884 99 174 99C172.419 109.749 169.322 124.781 163.441 133.996C161.164 137.564 155.079 144.816 150.742 139.677C147.582 135.933 149.247 129.333 149.87 125C151.823 111.419 157.622 98.8605 162 86C170.435 89.7341 181.397 92.285 189.999 87.5826C200.396 81.8994 202.094 68.2124 190.999 62.1397C183.206 57.8739 173.038 59.8881 166.015 64.5479C163.015 66.538 160.448 70.411 156.961 71.4622C154.484 72.2088 151.527 71.1537 149 71.0401C145.251 70.8716 141.674 71.318 138 72C139.499 68.084 140.635 64.1859 141 60C127.939 60.2696 115.196 62.3086 102 61.9853C87.4812 61.6296 68.6042 57.5855 57.5293 70.1852C49.3836 79.4523 50.5315 95.9408 63 100.991C69.6149 103.67 77.2832 101.62 83 98z"/>
<path style="fill:#fdfcfc; stroke:none;" d="M168 78C170.65 78.701 173.256 79.6413 176 79.8958C179.626 80.2322 193.635 78.4591 187.242 71.7423C181.577 65.7906 170.687 72.5029 168 78M271 78C273.305 78.7308 275.588 79.527 278.002 79.8156C281.752 80.264 293.284 78.7678 288.353 72.3171C283.24 65.6293 273.47 72.8161 271 78M348 78C350.628 78.833 353.223 79.7362 356 79.892C359.436 80.0847 371.803 78.4076 367.338 72.3171C362.195 65.3009 350.607 72.5409 348 78z"/>
<path style="fill:#bd054b; stroke:none;" d="M131.019 79.7971C123.704 82.157 126.85 93.4854 133.957 91.338C141.318 89.1136 138.697 77.3196 131.019 79.7971z"/>
<path style="fill:#fdfcfc; stroke:none;" d="M292 108.672C283.416 110.999 278.638 122.869 278.275 131C278.03 136.482 281.688 143.043 287.999 141.328C296.225 139.092 293.852 132.879 296.492 127.015C297.954 123.766 300.713 121.734 300.926 117.961C301.221 112.728 297.944 107.06 292 108.672M400 128C400.679 125.03 401.736 122.061 401.891 119C401.993 116.993 401.794 114.906 400.991 113.044C396.709 103.12 381.772 110.693 387.743 119.96C388.837 121.658 390.392 123.026 392.015 124.2C394.462 125.969 397.176 127.021 400 128M379 128C379.02 134.916 381.574 145.633 390.862 140.302C392.284 139.485 393.015 138.243 394 137C388.464 134.679 384.339 130.474 379 128M247 145C242.97 154.366 239.043 168.991 242 179L244 179C248.866 170.356 252.442 154.084 247 145z"/>
</svg>
